<svg width="54" height="36" viewBox="0 0 54 36" fill="none" xmlns="http://www.w3.org/2000/svg">
<mask id="mask0_1_1321" style="mask-type:alpha" maskUnits="userSpaceOnUse" x="0" y="0" width="54" height="36">
<rect x="0.356476" y="0.240181" width="52.9952" height="35.3301" fill="#005195"/>
</mask>
<g mask="url(#mask0_1_1321)">
<rect x="2.86158" y="41.7852" width="11.1962" height="51.0619" transform="rotate(-150 2.86158 41.7852)" fill="url(#paint0_linear_1_1321)"/>
<rect x="-12.0908" y="36.0028" width="11.1962" height="44.3853" transform="rotate(-150 -12.0908 36.0028)" fill="url(#paint1_linear_1_1321)"/>
<rect x="18.7307" y="45.9666" width="11.1962" height="55.8906" transform="rotate(-150 18.7307 45.9666)" fill="url(#paint2_linear_1_1321)"/>
<rect x="37.4343" y="45.2389" width="11.1962" height="55.0502" transform="rotate(-150 37.4343 45.2389)" fill="url(#paint3_linear_1_1321)"/>
<rect x="55.7663" y="45.1548" width="11.1962" height="54.9528" transform="rotate(-150 55.7663 45.1548)" fill="url(#paint4_linear_1_1321)"/>
</g>
<defs>
<linearGradient id="paint0_linear_1_1321" x1="8.45967" y1="41.7852" x2="8.45967" y2="92.847" gradientUnits="userSpaceOnUse">
<stop stop-color="#2014CC"/>
<stop offset="1" stop-color="#4F45E4"/>
</linearGradient>
<linearGradient id="paint1_linear_1_1321" x1="-6.49274" y1="36.0028" x2="-6.49274" y2="80.3881" gradientUnits="userSpaceOnUse">
<stop stop-color="#2014CC"/>
<stop offset="1" stop-color="#4F45E4"/>
</linearGradient>
<linearGradient id="paint2_linear_1_1321" x1="24.3288" y1="45.9666" x2="24.3288" y2="101.857" gradientUnits="userSpaceOnUse">
<stop stop-color="#2014CC"/>
<stop offset="1" stop-color="#4F45E4"/>
</linearGradient>
<linearGradient id="paint3_linear_1_1321" x1="43.0324" y1="45.2389" x2="43.0324" y2="100.289" gradientUnits="userSpaceOnUse">
<stop stop-color="#2014CC"/>
<stop offset="1" stop-color="#4F45E4"/>
</linearGradient>
<linearGradient id="paint4_linear_1_1321" x1="61.3644" y1="45.1548" x2="61.3644" y2="100.108" gradientUnits="userSpaceOnUse">
<stop stop-color="#2014CC"/>
<stop offset="1" stop-color="#4F45E4"/>
</linearGradient>
</defs>
</svg>
