<svg width="12" height="12" viewBox="0 0 12 12" fill="none" xmlns="http://www.w3.org/2000/svg">
<path d="M4.00001 1.33301C3.82319 1.33301 3.65363 1.40325 3.5286 1.52828C3.40358 1.6533 3.33334 1.82287 3.33334 1.99968C3.33334 2.17649 3.40358 2.34606 3.5286 2.47109C3.65363 2.59611 3.82319 2.66635 4.00001 2.66635C4.17682 2.66635 4.34639 2.59611 4.47141 2.47109C4.59643 2.34606 4.66667 2.17649 4.66667 1.99968C4.66667 1.82287 4.59643 1.6533 4.47141 1.52828C4.34639 1.40325 4.17682 1.33301 4.00001 1.33301ZM2.11334 1.33301C2.25107 0.942659 2.5065 0.604636 2.8444 0.36554C3.18231 0.126444 3.58606 -0.00195312 4.00001 -0.00195312C4.41395 -0.00195312 4.8177 0.126444 5.15561 0.36554C5.49351 0.604636 5.74894 0.942659 5.88667 1.33301H10.6667C10.8435 1.33301 11.0131 1.40325 11.1381 1.52828C11.2631 1.6533 11.3333 1.82287 11.3333 1.99968C11.3333 2.17649 11.2631 2.34606 11.1381 2.47109C11.0131 2.59611 10.8435 2.66635 10.6667 2.66635H5.88667C5.74894 3.0567 5.49351 3.39473 5.15561 3.63382C4.8177 3.87292 4.41395 4.00131 4.00001 4.00131C3.58606 4.00131 3.18231 3.87292 2.8444 3.63382C2.5065 3.39473 2.25107 3.0567 2.11334 2.66635H1.33334C1.15653 2.66635 0.986958 2.59611 0.861934 2.47109C0.73691 2.34606 0.666672 2.17649 0.666672 1.99968C0.666672 1.82287 0.73691 1.6533 0.861934 1.52828C0.986958 1.40325 1.15653 1.33301 1.33334 1.33301H2.11334ZM8.00001 5.33301C7.82319 5.33301 7.65363 5.40325 7.5286 5.52828C7.40358 5.6533 7.33334 5.82287 7.33334 5.99968C7.33334 6.17649 7.40358 6.34606 7.5286 6.47108C7.65363 6.59611 7.82319 6.66635 8.00001 6.66635C8.17682 6.66635 8.34639 6.59611 8.47141 6.47108C8.59643 6.34606 8.66667 6.17649 8.66667 5.99968C8.66667 5.82287 8.59643 5.6533 8.47141 5.52828C8.34639 5.40325 8.17682 5.33301 8.00001 5.33301ZM6.11334 5.33301C6.25107 4.94266 6.5065 4.60464 6.84441 4.36554C7.18231 4.12644 7.58606 3.99805 8.00001 3.99805C8.41395 3.99805 8.8177 4.12644 9.15561 4.36554C9.49351 4.60464 9.74894 4.94266 9.88667 5.33301H10.6667C10.8435 5.33301 11.0131 5.40325 11.1381 5.52828C11.2631 5.6533 11.3333 5.82287 11.3333 5.99968C11.3333 6.17649 11.2631 6.34606 11.1381 6.47108C11.0131 6.59611 10.8435 6.66635 10.6667 6.66635H9.88667C9.74894 7.0567 9.49351 7.39472 9.15561 7.63382C8.8177 7.87292 8.41395 8.00132 8.00001 8.00132C7.58606 8.00132 7.18231 7.87292 6.84441 7.63382C6.5065 7.39472 6.25107 7.0567 6.11334 6.66635H1.33334C1.15653 6.66635 0.986958 6.59611 0.861934 6.47108C0.73691 6.34606 0.666672 6.17649 0.666672 5.99968C0.666672 5.82287 0.73691 5.6533 0.861934 5.52828C0.986958 5.40325 1.15653 5.33301 1.33334 5.33301H6.11334ZM4.00001 9.33301C3.82319 9.33301 3.65363 9.40325 3.5286 9.52828C3.40358 9.6533 3.33334 9.82287 3.33334 9.99968C3.33334 10.1765 3.40358 10.3461 3.5286 10.4711C3.65363 10.5961 3.82319 10.6663 4.00001 10.6663C4.17682 10.6663 4.34639 10.5961 4.47141 10.4711C4.59643 10.3461 4.66667 10.1765 4.66667 9.99968C4.66667 9.82287 4.59643 9.6533 4.47141 9.52828C4.34639 9.40325 4.17682 9.33301 4.00001 9.33301ZM2.11334 9.33301C2.25107 8.94266 2.5065 8.60464 2.8444 8.36554C3.18231 8.12644 3.58606 7.99805 4.00001 7.99805C4.41395 7.99805 4.8177 8.12644 5.15561 8.36554C5.49351 8.60464 5.74894 8.94266 5.88667 9.33301H10.6667C10.8435 9.33301 11.0131 9.40325 11.1381 9.52828C11.2631 9.6533 11.3333 9.82287 11.3333 9.99968C11.3333 10.1765 11.2631 10.3461 11.1381 10.4711C11.0131 10.5961 10.8435 10.6663 10.6667 10.6663H5.88667C5.74894 11.0567 5.49351 11.3947 5.15561 11.6338C4.8177 11.8729 4.41395 12.0013 4.00001 12.0013C3.58606 12.0013 3.18231 11.8729 2.8444 11.6338C2.5065 11.3947 2.25107 11.0567 2.11334 10.6663H1.33334C1.15653 10.6663 0.986958 10.5961 0.861934 10.4711C0.73691 10.3461 0.666672 10.1765 0.666672 9.99968C0.666672 9.82287 0.73691 9.6533 0.861934 9.52828C0.986958 9.40325 1.15653 9.33301 1.33334 9.33301H2.11334Z" fill="black"/>
</svg>
